<?xml version="1.0" encoding="UTF-8"?>
<svg width="1834px" height="1059px" viewBox="0 0 1834 1059" version="1.1" xmlns="http://www.w3.org/2000/svg" xmlns:xlink="http://www.w3.org/1999/xlink">
    <!-- Generator: Sketch 47.1 (45422) - http://www.bohemiancoding.com/sketch -->
    <title>icons</title>
    <desc>Created with Sketch.</desc>
    <defs>
        <polygon id="path-1" points="1.16253578e-16 29.9983 1.16253578e-16 0.0003 29.9987 0.0003 29.9987 29.9983"></polygon>
        <polygon id="path-3" points="29.9984 29.9987 0.0004 29.9987 0.0004 -0.0001 29.9984 -0.0001"></polygon>
        <polygon id="path-5" points="0 0.0003 0 29.9983 29.9987 29.9983 29.9987 0.0003"></polygon>
    </defs>
    <g id="Page-1" stroke="none" stroke-width="1" fill="none" fill-rule="evenodd">
        <g id="icons">
            <g id="logo" transform="translate(10.000000, 10.000000)" fill="#000000">
                <path d="M19.7549,16.8984 C19.2189,19.0094 18.1479,20.7514 16.5399,22.0574 C14.9329,23.3644 12.9569,24.0004 10.5809,24.0004 C7.6669,24.0004 5.1559,22.9614 3.0789,20.8514 C1.0379,18.7404 -0.0001,15.7944 -0.0001,12.0074 C-0.0001,8.2224 1.0379,5.2754 3.0789,3.1654 C5.1559,1.0544 7.6669,0.0154 10.5809,0.0154 C12.9569,0.0154 14.9329,0.6864 16.5399,1.9924 C18.1479,3.2984 19.2189,5.0064 19.7549,7.1184 L16.9079,7.9554 C15.8039,4.5384 13.6939,2.8304 10.5809,2.8304 C8.3369,2.8304 6.5279,3.6334 5.1229,5.2084 C3.7489,6.7824 3.0459,9.0604 3.0459,12.0074 C3.0459,14.9564 3.7489,17.2334 5.1229,18.8074 C6.5279,20.3814 8.3369,21.1864 10.5809,21.1864 C13.6939,21.1864 15.8039,19.4774 16.9079,16.0614 L19.7549,16.8984 Z" id="Fill-1"></path>
                <path d="M36.4219,23.7324 L29.5589,12.6774 L26.0429,12.6774 L26.0429,23.7324 L23.0959,23.7324 L23.0959,0.2844 L30.8989,0.2844 C35.0829,0.2844 37.7959,2.5954 37.7959,6.4814 C37.7959,9.6974 35.9879,11.8404 32.9069,12.4764 L39.9039,23.7324 L36.4219,23.7324 Z M26.0429,3.0974 L26.0429,9.8644 L30.9649,9.8644 C33.4769,9.8644 34.7489,8.7254 34.7489,6.4814 C34.7489,4.2374 33.4769,3.0974 30.9649,3.0974 L26.0429,3.0974 Z" id="Fill-4"></path>
                <polygon id="Fill-7" points="43.8219 0.2841 43.8219 23.7331 57.6179 23.7331 57.6179 20.9191 46.7689 20.9191 46.7689 12.6451 55.2739 12.6451 55.2739 9.8301 46.7689 9.8301 46.7689 3.0971 57.2819 3.0971 57.2819 0.2841"></polygon>
                <path d="M68.4324,0.2841 L60.3294,23.7331 L63.2764,23.7331 L65.3524,17.4681 L74.3274,17.4681 L76.4014,23.7331 L79.3484,23.7331 L71.2454,0.2841 L68.4324,0.2841 Z M69.8404,4.1031 L73.3884,14.6541 L66.2904,14.6541 L69.8404,4.1031 Z" id="Fill-8"></path>
                <polygon id="Fill-9" points="77.9427 0.2841 77.9427 3.0971 84.7067 3.0971 84.7067 23.7331 87.6537 23.7331 87.6537 3.0971 94.4177 3.0971 94.4177 0.2841"></polygon>
                <polygon id="Fill-10" points="97.898 23.733 100.845 23.733 100.845 0.284 97.898 0.284"></polygon>
                <polygon id="Fill-11" points="120.1329 0.2841 113.7029 19.5451 107.2749 0.2841 104.1609 0.2841 112.2289 23.7331 115.1769 23.7331 123.2459 0.2841"></polygon>
                <polygon id="Fill-12" points="126.6282 0.2841 126.6282 23.7331 140.4232 23.7331 140.4232 20.9191 129.5752 20.9191 129.5752 12.6451 138.0802 12.6451 138.0802 9.8301 129.5752 9.8301 129.5752 3.0971 140.0872 3.0971 140.0872 0.2841"></polygon>
                <path d="M154.5527,0.2842 L162.4547,0.2842 C166.5737,0.2842 169.0517,2.5282 169.0517,6.3132 C169.0517,8.3232 167.9807,10.0652 166.4067,10.9022 C168.7167,11.8412 170.1907,13.9502 170.1907,16.7642 C170.1907,21.0862 167.4447,23.7322 162.8907,23.7322 L154.5527,23.7322 L154.5527,0.2842 Z M157.4997,3.0972 L157.4997,9.8302 L162.2877,9.8302 C164.5657,9.8302 166.0037,8.6582 166.0037,6.4812 C166.0037,4.3042 164.5657,3.0972 162.2877,3.0972 L157.4997,3.0972 Z M157.4997,12.6442 L157.4997,20.9192 L162.4547,20.9192 C165.5697,20.9192 167.1427,19.5452 167.1427,16.7642 C167.1427,14.0172 165.5697,12.6442 162.4547,12.6442 L157.4997,12.6442 Z" id="Fill-13"></path>
                <polygon id="Fill-15" points="241.3836 0.2841 235.1226 16.7991 228.8606 0.2841 225.2436 0.2841 225.2436 23.7331 228.1916 23.7331 228.1916 6.6481 234.0846 21.5891 236.1606 21.5891 242.0526 6.6481 242.0526 23.7331 244.9996 23.7331 244.9996 0.2841"></polygon>
                <path d="M210.1543,2.9824 C205.1813,2.9824 201.1363,7.0284 201.1363,12.0004 C201.1363,16.9714 205.1813,21.0184 210.1543,21.0184 C215.1273,21.0184 219.1733,16.9714 219.1733,12.0004 C219.1733,7.0284 215.1273,2.9824 210.1543,2.9824 M210.1543,24.0004 C203.5373,24.0004 198.1543,18.6174 198.1543,12.0004 C198.1543,5.3824 203.5373,0.0004 210.1543,0.0004 C216.7723,0.0004 222.1543,5.3824 222.1543,12.0004 C222.1543,18.6174 216.7723,24.0004 210.1543,24.0004" id="Fill-16"></path>
                <path d="M184.2441,2.9824 C179.2711,2.9824 175.2261,7.0284 175.2261,12.0004 C175.2261,16.9714 179.2711,21.0184 184.2441,21.0184 C189.2171,21.0184 193.2621,16.9714 193.2621,12.0004 C193.2621,7.0284 189.2171,2.9824 184.2441,2.9824 M184.2441,24.0004 C177.6271,24.0004 172.2441,18.6174 172.2441,12.0004 C172.2441,5.3824 177.6271,0.0004 184.2441,0.0004 C190.8621,0.0004 196.2441,5.3824 196.2441,12.0004 C196.2441,18.6174 190.8621,24.0004 184.2441,24.0004" id="Fill-19"></path>
            </g>
            <g id="search-icon" transform="translate(300.000000, 11.000000)" stroke="#231F20" stroke-width="2" stroke-linecap="round" stroke-linejoin="round">
                <path d="M1.93374202,11.3250782 C4.50693628,13.9041983 8.70119167,13.9141659 11.2846377,11.3250782 C13.8680837,8.73599051 13.8680837,4.53090344 11.2846377,1.94181576 C8.70119167,-0.64727192 4.51718805,-0.64727192 1.93374202,1.94181576 C-0.649704011,4.53090344 -0.639452241,8.72602289 1.93374202,11.3250782 Z" id="Stroke-1"></path>
                <path d="M12.2777778,13.2631579 L17,18" id="Stroke-3"></path>
            </g>
            <g id="nav-icon" transform="translate(400.000000, 11.000000)" stroke="#231F20" stroke-width="2" stroke-linecap="round" stroke-linejoin="round">
                <path d="M0,0.0002 L22,0.0002" id="Stroke-1"></path>
                <path d="M0,14.0002 L22,14.0002" id="Stroke-3"></path>
                <path d="M0,7.0002 L22,7.0002" id="Stroke-5"></path>
            </g>
            <g id="search-close-icon" transform="translate(10.000000, 50.000000)" stroke="#231F20" stroke-width="2" stroke-linecap="round" stroke-linejoin="round">
                <path d="M0,27.8623 L26.867,0.9953" id="Stroke-1"></path>
                <path d="M0.0078,0.9951 L26.8748,27.8621" id="Stroke-3"></path>
            </g>
            <g id="Page-1" transform="translate(10.000000, 100.000000)">
                <mask id="mask-2" fill="white">
                    <use xlink:href="#path-1"></use>
                </mask>
                <g id="Clip-2"></g>
                <path d="M29.9987,14.9993 C29.9987,6.7153 23.2837,0.0003 14.9997,0.0003 C6.7157,0.0003 -0.0003,6.7153 -0.0003,14.9993 C-0.0003,23.2833 6.7157,29.9983 14.9997,29.9983 C23.2837,29.9983 29.9987,23.2833 29.9987,14.9993 M22.2597,10.8533 C22.9907,10.7653 23.6897,10.5703 24.3367,10.2833 C23.8517,11.0073 23.2387,11.6463 22.5327,12.1563 C22.5407,12.3103 22.5427,12.4673 22.5427,12.6233 C22.5427,17.4013 18.9067,22.9103 12.2557,22.9103 C10.2137,22.9103 8.3127,22.3133 6.7117,21.2863 C6.9947,21.3213 7.2847,21.3363 7.5757,21.3363 C9.2707,21.3363 10.8287,20.7593 12.0667,19.7883 C10.4837,19.7583 9.1487,18.7133 8.6877,17.2773 C8.9087,17.3203 9.1357,17.3443 9.3697,17.3443 C9.6967,17.3443 10.0187,17.2993 10.3207,17.2153 C8.6667,16.8833 7.4217,15.4223 7.4217,13.6713 L7.4217,13.6243 C7.9077,13.8963 8.4647,14.0593 9.0587,14.0763 C8.0877,13.4293 7.4497,12.3213 7.4497,11.0673 C7.4497,10.4053 7.6297,9.7843 7.9397,9.2503 C9.7227,11.4383 12.3887,12.8763 15.3927,13.0283 C15.3307,12.7633 15.2987,12.4863 15.2987,12.2033 C15.2987,10.2063 16.9177,8.5883 18.9147,8.5883 C19.9547,8.5883 20.8947,9.0283 21.5547,9.7303 C22.3777,9.5683 23.1517,9.2653 23.8497,8.8523 C23.5797,9.6963 23.0057,10.4053 22.2597,10.8533" id="Fill-1" fill="#BBBDBF" mask="url(#mask-2)"></path>
            </g>
            <g id="Page-1" transform="translate(90.000000, 100.000000)">
                <mask id="mask-4" fill="white">
                    <use xlink:href="#path-3"></use>
                </mask>
                <g id="Clip-2"></g>
                <path d="M14.9994,-0.0001 C6.7154,-0.0001 0.0004,6.7149 0.0004,14.9999 C0.0004,21.3539 3.9534,26.7819 9.5324,28.9659 C9.4034,27.7799 9.2844,25.9609 9.5864,24.6649 C9.8584,23.4949 11.3454,17.2079 11.3454,17.2079 C11.3454,17.2079 10.8954,16.3089 10.8954,14.9809 C10.8954,12.8959 12.1044,11.3399 13.6084,11.3399 C14.8894,11.3399 15.5084,12.2989 15.5084,13.4529 C15.5084,14.7399 14.6894,16.6629 14.2644,18.4449 C13.9104,19.9389 15.0144,21.1549 16.4864,21.1549 C19.1514,21.1549 21.2014,18.3459 21.2014,14.2869 C21.2014,10.6969 18.6214,8.1859 14.9374,8.1859 C10.6684,8.1859 8.1634,11.3869 8.1634,14.6939 C8.1634,15.9839 8.6594,17.3649 9.2804,18.1179 C9.4034,18.2669 9.4204,18.3959 9.3834,18.5489 C9.2694,19.0209 9.0174,20.0409 8.9674,20.2499 C8.9014,20.5239 8.7504,20.5819 8.4654,20.4509 C6.5924,19.5769 5.4214,16.8389 5.4214,14.6379 C5.4214,9.9059 8.8574,5.5619 15.3314,5.5619 C20.5354,5.5619 24.5774,9.2699 24.5774,14.2239 C24.5774,19.3939 21.3174,23.5549 16.7954,23.5549 C15.2754,23.5549 13.8464,22.7659 13.3564,21.8319 C13.3564,21.8319 12.6044,24.6949 12.4234,25.3979 C12.0844,26.6999 11.1714,28.3339 10.5584,29.3309 C11.9624,29.7639 13.4534,29.9989 14.9994,29.9989 C23.2834,29.9989 29.9984,23.2829 29.9984,14.9999 C29.9984,6.7149 23.2834,-0.0001 14.9994,-0.0001" id="Fill-1" fill="#BBBDBF" mask="url(#mask-4)"></path>
            </g>
            <g id="Page-1" transform="translate(50.000000, 100.000000)">
                <mask id="mask-6" fill="white">
                    <use xlink:href="#path-5"></use>
                </mask>
                <g id="Clip-2"></g>
                <path d="M29.9987,14.9993 C29.9987,6.7153 23.2837,0.0003 14.9997,0.0003 C6.7157,0.0003 -0.0003,6.7153 -0.0003,14.9993 C-0.0003,23.2833 6.7157,29.9983 14.9997,29.9983 C23.2837,29.9983 29.9987,23.2833 29.9987,14.9993 L29.9987,14.9993 Z M19.6737,9.4013 L17.9787,9.4013 C16.6507,9.4013 16.3937,10.0333 16.3937,10.9583 L16.3937,13.0003 L19.5627,13.0003 L19.1487,16.2003 L16.3937,16.2003 L16.3937,24.4113 L13.0897,24.4113 L13.0897,16.2003 L10.3277,16.2003 L10.3277,13.0003 L13.0897,13.0003 L13.0897,10.6413 C13.0897,7.9033 14.7607,6.4113 17.2057,6.4113 C18.3757,6.4113 19.3807,6.4993 19.6737,6.5383 L19.6737,9.4013 Z" id="Fill-1" fill="#BBBDBF" mask="url(#mask-6)"></path>
            </g>
            <g id="Page-1" transform="translate(130.000000, 100.000000)" fill="#BBBDBF">
                <path d="M30.6918,14.9993 C30.6918,6.7153 23.9768,0.0003 15.6928,0.0003 C7.4078,0.0003 0.6928,6.7153 0.6928,14.9993 C0.6928,23.2833 7.4078,29.9983 15.6928,29.9983 C23.9768,29.9983 30.6918,23.2833 30.6918,14.9993 M23.9428,15.4113 C23.9428,17.6523 23.9318,17.9333 23.8928,18.8133 C23.8528,19.6903 23.7138,20.2903 23.5098,20.8153 C23.2978,21.3573 23.0168,21.8183 22.5588,22.2763 C22.0998,22.7353 21.6388,23.0183 21.0968,23.2283 C20.5718,23.4313 19.9718,23.5703 19.0938,23.6113 C18.2148,23.6523 17.9338,23.6603 15.6928,23.6603 C13.4518,23.6603 13.1708,23.6523 12.2928,23.6113 C11.4138,23.5703 10.8138,23.4313 10.2888,23.2283 C9.7468,23.0183 9.2858,22.7353 8.8268,22.2763 C8.3688,21.8183 8.0888,21.3573 7.8758,20.8153 C7.6728,20.2903 7.5328,19.6903 7.4928,18.8133 C7.4538,17.9333 7.4428,17.6523 7.4428,15.4113 C7.4428,13.1723 7.4538,12.8913 7.4928,12.0103 C7.5328,11.1323 7.6728,10.5323 7.8758,10.0073 C8.0888,9.4653 8.3688,9.0063 8.8268,8.5453 C9.2858,8.0873 9.7468,7.8063 10.2888,7.5943 C10.8138,7.3903 11.4138,7.2513 12.2928,7.2103 C13.1708,7.1723 13.4518,7.1613 15.6928,7.1613 C17.9338,7.1613 18.2148,7.1723 19.0938,7.2103 C19.9718,7.2513 20.5718,7.3903 21.0968,7.5943 C21.6388,7.8063 22.0998,8.0873 22.5588,8.5453 C23.0168,9.0063 23.2978,9.4653 23.5098,10.0073 C23.7138,10.5323 23.8528,11.1323 23.8928,12.0103 C23.9318,12.8913 23.9428,13.1723 23.9428,15.4113 M22.4088,18.7453 C22.4468,17.8753 22.4558,17.6143 22.4558,15.4113 C22.4558,13.2083 22.4468,12.9493 22.4088,12.0793 C22.3718,11.2733 22.2368,10.8363 22.1238,10.5473 C21.9728,10.1613 21.7958,9.8873 21.5058,9.5983 C21.2188,9.3083 20.9428,9.1303 20.5588,8.9803 C20.2678,8.8673 19.8308,8.7343 19.0268,8.6953 C18.1568,8.6573 17.8958,8.6483 15.6928,8.6483 C13.4898,8.6483 13.2288,8.6573 12.3588,8.6953 C11.5558,8.7343 11.1178,8.8673 10.8268,8.9803 C10.4428,9.1303 10.1668,9.3083 9.8798,9.5983 C9.5908,9.8873 9.4128,10.1613 9.2628,10.5473 C9.1488,10.8363 9.0138,11.2733 8.9778,12.0793 C8.9388,12.9493 8.9298,13.2083 8.9298,15.4113 C8.9298,17.6143 8.9388,17.8753 8.9778,18.7453 C9.0138,19.5483 9.1488,19.9863 9.2628,20.2773 C9.4128,20.6633 9.5908,20.9373 9.8798,21.2243 C10.1668,21.5133 10.4428,21.6933 10.8268,21.8413 C11.1178,21.9553 11.5558,22.0903 12.3588,22.1263 C13.2288,22.1673 13.4898,22.1733 15.6928,22.1733 C17.8958,22.1733 18.1568,22.1673 19.0268,22.1263 C19.8308,22.0903 20.2678,21.9553 20.5588,21.8413 C20.9428,21.6933 21.2188,21.5133 21.5058,21.2243 C21.7958,20.9373 21.9728,20.6633 22.1238,20.2773 C22.2368,19.9863 22.3718,19.5483 22.4088,18.7453 M19.9288,15.4113 C19.9288,17.7513 18.0328,19.6473 15.6928,19.6473 C13.3528,19.6473 11.4568,17.7513 11.4568,15.4113 C11.4568,13.0713 13.3528,11.1753 15.6928,11.1753 C18.0328,11.1753 19.9288,13.0713 19.9288,15.4113 M21.0858,11.0083 C21.0858,11.5543 20.6428,11.9983 20.0968,11.9983 C19.5498,11.9983 19.1068,11.5543 19.1068,11.0083 C19.1068,10.4613 19.5498,10.0183 20.0968,10.0183 C20.6428,10.0183 21.0858,10.4613 21.0858,11.0083 M18.4418,15.4113 C18.4418,13.8923 17.2118,12.6623 15.6928,12.6623 C14.1738,12.6623 12.9438,13.8923 12.9438,15.4113 C12.9438,16.9303 14.1738,18.1603 15.6928,18.1603 C17.2118,18.1603 18.4418,16.9303 18.4418,15.4113" id="Fill-1"></path>
            </g>
            <circle id="Oval" fill="#BBBDBF" cx="185" cy="115" r="15"></circle>
            <circle id="Oval" fill="#BBBDBF" cx="225" cy="115" r="15"></circle>
            <circle id="Oval" fill="#BBBDBF" cx="265" cy="115" r="15"></circle>
            <text id="@" font-family="Apercu" font-size="18" font-weight="normal" fill="#FFFFFF">
                <tspan x="176" y="121">@</tspan>
            </text>
            <path d="M232.058485,113.33932 L230.38619,115.010831 C230.169019,114.257396 229.760549,113.53297 229.163917,112.90733 L230.394814,111.675648 C230.835428,111.235818 230.629233,110.483952 230.186267,110.041769 L228.899705,108.755991 C228.493587,108.349874 227.835018,108.136623 227.345011,108.62663 L223.232874,112.737983 C222.764819,113.206822 222.935734,113.869311 223.347339,114.288757 L223.347339,114.287973 C223.354395,114.295029 223.359884,114.302869 223.364588,114.307573 L225.563738,116.506724 L223.900851,118.169611 L221.7017,115.971244 L221.693076,115.96262 C221.690724,115.959484 221.689156,115.957916 221.686804,115.95478 C221.685236,115.953996 221.684452,115.952428 221.682884,115.951644 L221.682884,115.951644 C220.288913,114.545912 220.237168,112.407131 221.569202,111.074312 L225.68134,106.962958 C227.013375,105.630924 229.158429,105.687372 230.562592,107.091536 L231.849154,108.378098 C233.298791,109.82695 233.39052,112.005717 232.058485,113.33932 Z M226.12901,111.52747 C226.125874,111.52355 226.12117,111.520414 226.118034,111.517278 L224.454363,113.180165 C224.458283,113.184869 224.462203,113.187221 224.466123,113.191142 L226.582953,115.307187 C227.025919,115.750937 227.23133,116.501236 226.7915,116.942634 L222.680146,121.053988 C222.236396,121.497738 221.482177,121.294679 221.039211,120.850145 L219.752649,119.565151 C219.334771,119.147273 219.158369,118.47616 219.630343,118.004969 L220.852616,116.782696 C220.24344,116.170383 219.831834,115.450661 219.612311,114.696443 L217.967456,116.341298 C216.631501,117.677252 216.685598,119.823874 218.089762,121.228038 L219.37554,122.513816 C220.800872,123.938364 223.029815,124.030877 224.343033,122.716875 L228.455171,118.605521 C229.787206,117.273487 229.695476,115.093936 228.24584,113.6443 L226.12901,111.52747 Z" id="Shape" fill="#FFFFFF" fill-rule="nonzero"></path>
            <g id="In-2CRev-PMS-0p5in-R" transform="translate(257.000000, 106.000000)" fill="#FFFFFE">
                <g id="Group">
                    <path d="M2.04736922,0 C3.17613185,0 4.09209496,0.916623985 4.09209496,2.04604748 C4.09209496,3.17613185 3.17613185,4.09275583 2.04736922,4.09275583 C0.913980513,4.09275583 0,3.17613185 0,2.04604748 C0,0.916623985 0.913980513,0 2.04736922,0 L2.04736922,0 Z M0.280208053,16.9975262 L3.81254778,16.9975262 L3.81254778,5.64381314 L0.280208053,5.64381314 L0.280208053,16.9975262 Z" id="Fill-6"></path>
                    <path d="M6.19203206,5.69955784 L9.57435474,5.69955784 L9.57435474,7.25193689 L9.62325897,7.25193689 C10.093797,6.35910416 11.2450292,5.41802805 12.9613035,5.41802805 C16.534617,5.41802805 17.1948242,7.76873571 17.1948242,10.8265722 L17.1948242,17.0532709 L13.6664497,17.0532709 L13.6664497,11.5317184 C13.6664497,10.2152692 13.6439802,8.52146441 11.8332017,8.52146441 C9.99664942,8.52146441 9.71644137,9.95620895 9.71644137,11.4378751 L9.71644137,17.0532709 L6.19203206,17.0532709 L6.19203206,5.69955784" id="Fill-7"></path>
                </g>
            </g>
        </g>
    </g>
</svg>