<?xml version="1.0" encoding="UTF-8"?>
<svg width="245px" height="24px" viewBox="0 0 245 24" version="1.1" xmlns="http://www.w3.org/2000/svg" xmlns:xlink="http://www.w3.org/1999/xlink">
    <!-- Generator: Sketch 47.1 (45422) - http://www.bohemiancoding.com/sketch -->
    <title>logo</title>
    <desc>Created with Sketch.</desc>
    <defs></defs>
    <g id="Page-1" stroke="none" stroke-width="1" fill="none" fill-rule="evenodd">
        <g id="icons" transform="translate(-10.000000, -10.000000)" fill="#000000">
            <g id="logo" transform="translate(10.000000, 10.000000)">
                <path d="M19.7549,16.8984 C19.2189,19.0094 18.1479,20.7514 16.5399,22.0574 C14.9329,23.3644 12.9569,24.0004 10.5809,24.0004 C7.6669,24.0004 5.1559,22.9614 3.0789,20.8514 C1.0379,18.7404 -0.0001,15.7944 -0.0001,12.0074 C-0.0001,8.2224 1.0379,5.2754 3.0789,3.1654 C5.1559,1.0544 7.6669,0.0154 10.5809,0.0154 C12.9569,0.0154 14.9329,0.6864 16.5399,1.9924 C18.1479,3.2984 19.2189,5.0064 19.7549,7.1184 L16.9079,7.9554 C15.8039,4.5384 13.6939,2.8304 10.5809,2.8304 C8.3369,2.8304 6.5279,3.6334 5.1229,5.2084 C3.7489,6.7824 3.0459,9.0604 3.0459,12.0074 C3.0459,14.9564 3.7489,17.2334 5.1229,18.8074 C6.5279,20.3814 8.3369,21.1864 10.5809,21.1864 C13.6939,21.1864 15.8039,19.4774 16.9079,16.0614 L19.7549,16.8984 Z" id="Fill-1"></path>
                <path d="M36.4219,23.7324 L29.5589,12.6774 L26.0429,12.6774 L26.0429,23.7324 L23.0959,23.7324 L23.0959,0.2844 L30.8989,0.2844 C35.0829,0.2844 37.7959,2.5954 37.7959,6.4814 C37.7959,9.6974 35.9879,11.8404 32.9069,12.4764 L39.9039,23.7324 L36.4219,23.7324 Z M26.0429,3.0974 L26.0429,9.8644 L30.9649,9.8644 C33.4769,9.8644 34.7489,8.7254 34.7489,6.4814 C34.7489,4.2374 33.4769,3.0974 30.9649,3.0974 L26.0429,3.0974 Z" id="Fill-4"></path>
                <polygon id="Fill-7" points="43.8219 0.2841 43.8219 23.7331 57.6179 23.7331 57.6179 20.9191 46.7689 20.9191 46.7689 12.6451 55.2739 12.6451 55.2739 9.8301 46.7689 9.8301 46.7689 3.0971 57.2819 3.0971 57.2819 0.2841"></polygon>
                <path d="M68.4324,0.2841 L60.3294,23.7331 L63.2764,23.7331 L65.3524,17.4681 L74.3274,17.4681 L76.4014,23.7331 L79.3484,23.7331 L71.2454,0.2841 L68.4324,0.2841 Z M69.8404,4.1031 L73.3884,14.6541 L66.2904,14.6541 L69.8404,4.1031 Z" id="Fill-8"></path>
                <polygon id="Fill-9" points="77.9427 0.2841 77.9427 3.0971 84.7067 3.0971 84.7067 23.7331 87.6537 23.7331 87.6537 3.0971 94.4177 3.0971 94.4177 0.2841"></polygon>
                <polygon id="Fill-10" points="97.898 23.733 100.845 23.733 100.845 0.284 97.898 0.284"></polygon>
                <polygon id="Fill-11" points="120.1329 0.2841 113.7029 19.5451 107.2749 0.2841 104.1609 0.2841 112.2289 23.7331 115.1769 23.7331 123.2459 0.2841"></polygon>
                <polygon id="Fill-12" points="126.6282 0.2841 126.6282 23.7331 140.4232 23.7331 140.4232 20.9191 129.5752 20.9191 129.5752 12.6451 138.0802 12.6451 138.0802 9.8301 129.5752 9.8301 129.5752 3.0971 140.0872 3.0971 140.0872 0.2841"></polygon>
                <path d="M154.5527,0.2842 L162.4547,0.2842 C166.5737,0.2842 169.0517,2.5282 169.0517,6.3132 C169.0517,8.3232 167.9807,10.0652 166.4067,10.9022 C168.7167,11.8412 170.1907,13.9502 170.1907,16.7642 C170.1907,21.0862 167.4447,23.7322 162.8907,23.7322 L154.5527,23.7322 L154.5527,0.2842 Z M157.4997,3.0972 L157.4997,9.8302 L162.2877,9.8302 C164.5657,9.8302 166.0037,8.6582 166.0037,6.4812 C166.0037,4.3042 164.5657,3.0972 162.2877,3.0972 L157.4997,3.0972 Z M157.4997,12.6442 L157.4997,20.9192 L162.4547,20.9192 C165.5697,20.9192 167.1427,19.5452 167.1427,16.7642 C167.1427,14.0172 165.5697,12.6442 162.4547,12.6442 L157.4997,12.6442 Z" id="Fill-13"></path>
                <polygon id="Fill-15" points="241.3836 0.2841 235.1226 16.7991 228.8606 0.2841 225.2436 0.2841 225.2436 23.7331 228.1916 23.7331 228.1916 6.6481 234.0846 21.5891 236.1606 21.5891 242.0526 6.6481 242.0526 23.7331 244.9996 23.7331 244.9996 0.2841"></polygon>
                <path d="M210.1543,2.9824 C205.1813,2.9824 201.1363,7.0284 201.1363,12.0004 C201.1363,16.9714 205.1813,21.0184 210.1543,21.0184 C215.1273,21.0184 219.1733,16.9714 219.1733,12.0004 C219.1733,7.0284 215.1273,2.9824 210.1543,2.9824 M210.1543,24.0004 C203.5373,24.0004 198.1543,18.6174 198.1543,12.0004 C198.1543,5.3824 203.5373,0.0004 210.1543,0.0004 C216.7723,0.0004 222.1543,5.3824 222.1543,12.0004 C222.1543,18.6174 216.7723,24.0004 210.1543,24.0004" id="Fill-16"></path>
                <path d="M184.2441,2.9824 C179.2711,2.9824 175.2261,7.0284 175.2261,12.0004 C175.2261,16.9714 179.2711,21.0184 184.2441,21.0184 C189.2171,21.0184 193.2621,16.9714 193.2621,12.0004 C193.2621,7.0284 189.2171,2.9824 184.2441,2.9824 M184.2441,24.0004 C177.6271,24.0004 172.2441,18.6174 172.2441,12.0004 C172.2441,5.3824 177.6271,0.0004 184.2441,0.0004 C190.8621,0.0004 196.2441,5.3824 196.2441,12.0004 C196.2441,18.6174 190.8621,24.0004 184.2441,24.0004" id="Fill-19"></path>
            </g>
        </g>
    </g>
</svg>